<svg xmlns="http://www.w3.org/2000/svg" viewBox="465 75 160 165" width="32" height="32" role="img" aria-label="DoroMap">
  <rect width="100%" height="100%" fill="#0D0812" rx="7"/>
  <path fill="#E8547B" d="M554.59,200.48l-25.05,31.38c-19.62,-23.38 -38.45,-46.64 -53.84,-72.75 -15.41,-26.14 -11.77,-58.9 10.17,-79.66,14.33,-13.57,33.61,-18.06,53.05,-15.63,27.09,3.39 48.17,22.86,53.02,49.69,2.76,15.26 .59,30.32 -7.2,43.89 -8.77,15.28 -18.88,28.96 -30.16,43.09ZM554.83,142.79c8.98,-8.68,11.52,-22.25,5.95,-32.86 -3.15,-6.01 -9.31,-9.56 -15.27,-9.63 -6.58,-.07 -12.03,3.52 -15.69,10.32 -4.19,-6.24 -9.93,-10.39 -17.24,-10.04 -6.35,.3 -12.52,4.6 -15.14,11.4 -4.59,11.92 -.97,25.08,8.75,33.29l23.93,16.43c8.82,-5.65,16.85,-11.33,24.7,-18.92Z"/>
</svg>
