<svg xmlns="http://www.w3.org/2000/svg" viewBox="0 0 1174.62 254.41" width="294" height="64" role="img" aria-label="DoroMap">
  <title>DoroMap</title>
  <!-- d -->
  <path fill="#F0EAF6" d="M72.33,192.83c-24.94,2.65 -46.93,-7.85 -61.25,-27.57C1.66,152.29 -1.21,136.75 .44,120.43c4.7,-32.62,33.49,-56.2,66.51,-55.04,18.43,.64,34.22,8.3,46.16,23.04l.35,-82.65c.03,-7.19,12.75,-6.4,15.24,-4.32,1.2,1,2.55,3.05,2.54,5.5l-.27,51.66,.11,29.12,.3,34.82c1.91,35.35 -23.09,66.47 -59.04,70.29ZM112.3,129.29c0,-26.01 -21.11,-47.09 -47.14,-47.09s-47.14,21.08 -47.14,47.09,21.11,47.09,47.14,47.09,47.14,-21.08,47.14,-47.09Z"/>
  <!-- o (first) -->
  <path fill="#F0EAF6" d="M308.08,129.45c0,35.56 -28.86,64.39 -64.47,64.39s-64.47,-28.83 -64.47,-64.39,28.86,-64.39,64.47,-64.39,64.47,28.83,64.47,64.39ZM290.66,129.36c0,-25.93 -21.04,-46.95 -47,-46.95s-47,21.02 -47,46.95,21.04,46.95,47,46.95,47,-21.02,47,-46.95Z"/>
  <!-- r -->
  <path fill="#F0EAF6" d="M379.86,113.15l-.76,74.76c-.05,4.66 -11.42,5.02 -14.42,3.38 -1.35,-.74 -2.75,-2.47 -2.74,-4.88l.23,-73.86c.09,-29.66,27.19,-50.11,56.38,-46.01,2.31,5,1.87,13.98,.52,15.57 -1.03,1.21 -2.88,1.75 -5.02,1.61 -17.61,-1.08 -33.99,10.62 -34.18,29.42Z"/>
  <!-- o (second — stylized map pin with heart, brand accent) -->
  <path fill="#E8547B" d="M554.59,200.48l-25.05,31.38c-19.62,-23.38 -38.45,-46.64 -53.84,-72.75 -15.41,-26.14 -11.77,-58.9 10.17,-79.66,14.33,-13.57,33.61,-18.06,53.05,-15.63,27.09,3.39 48.17,22.86,53.02,49.69,2.76,15.26 .59,30.32 -7.2,43.89 -8.77,15.28 -18.88,28.96 -30.16,43.09ZM554.83,142.79c8.98,-8.68,11.52,-22.25,5.95,-32.86 -3.15,-6.01 -9.31,-9.56 -15.27,-9.63 -6.58,-.07 -12.03,3.52 -15.69,10.32 -4.19,-6.24 -9.93,-10.39 -17.24,-10.04 -6.35,.3 -12.52,4.6 -15.14,11.4 -4.59,11.92 -.97,25.08,8.75,33.29l23.93,16.43c8.82,-5.65,16.85,-11.33,24.7,-18.92Z"/>
  <!-- m -->
  <path fill="#F0EAF6" d="M740.9,188.19c-.05,5.02 -17.14,5.63 -17.19,-.29l-.63,-80.18c-.12,-15.48 -13.23,-26.16 -27.96,-25.99 -15.85,.19 -28.05,11.97 -28.13,27.99l-.39,77.52c-.03,5.75 -12.74,6.19 -16.32,2.53 -2.04,-2.08 -1.16,-4.6 -1.15,-7.66l.27,-77.57c2.44,-24.1 22.63,-40.98 46.63,-40.68,15.6,.2 29.2,7.9 36.43,21.08,9.45,-15.78,26.15,-22.74,43.38,-20.82,23.14,2.58,40.67,20.86,40.63,44.42l-.13,78.58c0,5.63 -11.82,6.21 -15.12,3.62 -1.84,-1.44 -2.26,-3.45 -2.27,-6.32l-.15,-74.59c-.03,-12.94 -8.1,-23.58 -20.28,-26.97 -17.18,-4.78 -36.6,5.98 -36.79,24.84l-.82,80.49Z"/>
  <!-- a -->
  <path fill="#F0EAF6" d="M985.44,192.07c-3.78,-.13 -8.48,-.15 -8.65,-4.14l-.75,-18.21c-22.27,31.09 -69.27,29.26 -93.97,1.96 -13.17,-14.55 -19.14,-34.01 -15.39,-53.86,6.2,-32.88,36.11,-54.74,69.28,-52.04,36.99,3.01 62.66,35.07,57.63,71.58l.36,32.71.24,15.18c.08,4.81 -3.63,6.99 -8.75,6.82ZM976.78,129.2c0,-25.77 -20.92,-46.66 -46.72,-46.66s-46.72,20.89 -46.72,46.66,20.92,46.66,46.72,46.66,46.72,-20.89,46.72,-46.66Z"/>
  <!-- p -->
  <path fill="#F0EAF6" d="M1061.85,171.03l-.32,79.1c-.02,5.13 -12.67,5.11 -15.41,2.73 -1.55,-1.35 -2.5,-3.57 -2.49,-6.62l.67,-120.07c1.49,-39.31 38.96,-66.65 76.66,-59.61,20.35,3.8 36.99,16.1 45.81,32.57,10.49,19.6,10.41,42.49,0,61.01 -11.74,20.9 -33.18,32.26 -56.75,33.04 -19,.63 -36.33,-7.15 -48.17,-22.15ZM1156.31,129.33c0,-25.92 -21.04,-46.94 -46.99,-46.94s-46.99,21.01 -46.99,46.94,21.04,46.94,46.99,46.94,46.99,-21.01,46.99,-46.94Z"/>
</svg>
